<?xml version="1.0" standalone="no"?>
<!DOCTYPE svg PUBLIC "-//W3C//DTD SVG 20010904//EN"
 "http://www.w3.org/TR/2001/REC-SVG-20010904/DTD/svg10.dtd">
<svg version="1.0" xmlns="http://www.w3.org/2000/svg"
 width="600.000000pt" height="306.000000pt" viewBox="0 0 600.000000 306.000000"
 preserveAspectRatio="xMidYMid meet">
<g transform="translate(0.000000,306.000000) scale(0.100000,-0.100000)"
fill="#000000" stroke="none">
<path d="M2981 2387 c-7 -7 -38 -36 -68 -66 l-54 -54 2 -64 c1 -35 -1 -66 -4
-70 -4 -3 -7 0 -7 8 0 20 -37 59 -55 59 -8 0 -24 -9 -34 -19 -11 -11 -21 -17
-24 -15 -3 3 -29 -20 -58 -51 -30 -30 -60 -53 -67 -50 -7 3 -10 0 -7 -5 3 -6
-9 -25 -28 -42 l-35 -33 -6 -178 c-5 -124 -3 -184 5 -198 6 -13 7 -19 1 -15
-6 3 -12 2 -14 -3 -1 -5 -31 17 -66 48 l-63 57 55 57 c51 51 56 61 56 100 0
31 -6 49 -20 62 -11 10 -20 13 -20 7 0 -7 -3 -11 -7 -10 -5 2 -24 -12 -43 -31
-19 -18 -56 -51 -82 -74 -26 -22 -44 -45 -41 -50 3 -6 1 -7 -5 -3 -11 7 -52
-39 -52 -59 0 -14 88 -105 102 -105 5 0 6 -4 3 -10 -4 -6 1 -7 12 -3 10 3 15
2 10 -2 -7 -9 20 -45 34 -45 8 0 68 -53 140 -123 16 -15 29 -25 29 -22 0 3 19
-13 43 -35 80 -77 102 -97 127 -113 13 -10 20 -17 15 -17 -6 0 8 -12 30 -25
22 -14 36 -25 32 -25 -5 0 22 -26 59 -57 88 -74 97 -69 105 58 4 52 7 299 8
549 1 352 -2 459 -11 469 -11 11 -10 12 1 6 10 -6 12 -2 7 13 -6 18 9 41 19
30 2 -2 6 -262 7 -577 4 -549 5 -574 23 -587 22 -16 49 -19 40 -4 -3 5 -1 10
5 10 6 0 33 20 59 45 26 25 53 45 60 45 7 0 9 5 6 10 -3 5 -3 10 2 10 4 0 24
14 43 30 19 16 39 30 43 30 5 0 5 5 2 10 -3 6 -2 10 3 10 5 0 28 18 53 40 24
22 50 40 57 40 7 0 11 3 8 8 -2 4 12 21 31 37 19 17 46 40 59 53 13 12 28 22
33 22 5 0 13 5 17 12 5 7 2 9 -7 4 -15 -8 -7 -1 62 54 24 19 61 53 83 75 22
22 43 39 47 38 4 -1 10 9 13 23 7 26 -8 64 -25 64 -6 0 -7 5 -4 10 4 6 3 9 -2
8 -11 -4 -59 34 -60 47 0 5 -9 14 -19 20 -10 5 -36 28 -59 51 -44 46 -65 56
-85 44 -19 -12 -22 -96 -5 -114 8 -7 11 -16 8 -20 -4 -3 -2 -6 4 -6 12 0 53
-34 53 -44 0 -4 -5 -4 -12 0 -7 4 -8 3 -4 -5 4 -6 11 -9 16 -6 5 3 16 -5 24
-17 19 -26 12 -37 -49 -73 -24 -14 -47 -34 -50 -45 -3 -11 -16 -22 -28 -25
-12 -3 -30 -19 -39 -36 -10 -16 -25 -32 -35 -36 -10 -4 -35 -25 -56 -46 -21
-22 -41 -37 -44 -33 -4 3 0 6 8 6 11 0 11 2 -1 10 -11 7 -11 10 -2 10 9 0 10
6 4 18 -4 9 -7 49 -6 87 1 39 2 141 3 228 1 132 3 157 16 157 13 0 15 -24 16
-152 0 -84 2 -163 3 -175 1 -12 -1 -20 -5 -17 -4 2 -6 -8 -5 -23 2 -16 4 -34
5 -40 0 -7 8 -13 17 -13 8 0 13 -4 10 -9 -4 -5 3 -7 14 -4 11 3 17 9 14 14 -3
5 -1 8 3 7 5 -2 26 15 46 36 l37 39 -1 186 c-1 227 -9 247 -105 265 -21 4 -85
56 -69 56 4 0 0 9 -9 19 -10 11 -18 26 -20 34 -1 8 -17 29 -35 46 -27 25 -36
29 -52 21 -10 -6 -19 -9 -20 -8 0 2 -3 16 -5 32 -6 38 -18 53 -82 109 -57 51
-60 52 -81 34z m76 -69 l53 -52 0 -524 0 -523 158 137 c86 75 164 144 172 153
13 14 187 169 199 178 3 2 -25 34 -62 71 -62 63 -67 71 -67 111 l0 44 113
-109 114 -109 -46 -44 c-25 -25 -179 -161 -341 -303 l-295 -259 -3 574 -2 574
-25 23 c-25 24 -26 24 -45 4 -20 -19 -20 -35 -21 -589 -1 -314 -3 -573 -6
-577 -4 -7 -84 60 -393 331 -47 41 -92 81 -101 90 -9 9 -40 37 -70 63 -30 26
-71 62 -91 82 l-36 35 109 101 109 102 0 -45 c0 -42 -4 -48 -62 -102 l-62 -58
59 -54 c96 -87 418 -369 448 -393 l27 -21 0 517 0 518 52 53 c29 29 55 53 57
53 3 0 29 -23 58 -52z m161 -151 c12 -18 22 -36 22 -40 0 -4 14 -29 30 -56 26
-42 35 -49 71 -54 23 -3 52 -16 65 -28 24 -22 24 -25 24 -208 l0 -185 -37 -38
c-20 -21 -40 -38 -43 -38 -3 0 -4 99 -2 220 l3 220 -23 0 c-14 0 -33 12 -48
30 l-25 31 3 -294 3 -293 -41 -37 -40 -38 0 421 c0 231 3 420 8 420 4 0 17
-15 30 -33z m-402 -9 c9 -13 7 -298 -2 -321 -3 -9 -2 -22 3 -31 4 -8 6 -101 3
-208 -4 -170 -7 -193 -22 -196 -10 -2 -58 34 -120 89 l-103 93 -5 190 -5 191
25 27 c48 53 194 178 206 178 7 0 16 -5 20 -12z m46 -328 c1 -9 -1 -18 -7 -20
-5 -3 -10 7 -10 22 -1 28 10 26 17 -2z m-201 -367 c13 -16 12 -17 -3 -4 -10 7
-18 15 -18 17 0 8 8 3 21 -13z m198 -29 c-6 -8 -7 -14 -2 -14 8 0 6 -110 -3
-119 -2 -2 -19 10 -38 27 -19 16 -32 34 -28 38 4 4 -1 4 -11 1 -11 -4 -16 -3
-12 4 4 5 16 7 26 4 23 -8 52 12 42 28 -4 6 -1 7 7 2 10 -6 12 -4 7 8 -3 9 -2
19 4 22 5 4 6 11 3 17 -4 7 -2 8 5 4 9 -6 9 -11 0 -22z m312 -86 c12 -18 18
-24 15 -13 -4 11 -4 16 0 12 4 -4 14 -1 22 6 11 8 10 4 -3 -16 -10 -15 -20
-25 -23 -22 -3 3 -13 -1 -21 -9 -15 -13 -16 -10 -16 30 0 24 1 44 3 44 1 0 12
-15 23 -32z"/>
<path d="M2687 2027 l-47 -32 2 -80 c3 -65 6 -79 18 -76 8 2 31 5 50 8 l35 5
0 104 c0 57 -2 104 -5 103 -3 0 -26 -15 -53 -32z m24 -103 c-4 -26 -11 -49
-17 -51 -15 -5 -23 84 -9 99 7 8 6 9 -5 3 -13 -8 -13 -7 -1 9 23 28 38 -2 32
-60z"/>
<path d="M2640 1681 l0 -99 33 -27 c61 -50 67 -55 70 -55 1 0 2 63 2 140 l0
140 -52 0 -53 0 0 -99z m71 -3 c0 -40 2 -81 4 -90 4 -24 -7 -28 -25 -9 -11 11
-15 38 -15 93 0 68 2 78 18 78 14 0 17 -10 18 -72z"/>
<path d="M1710 952 c-44 -14 -50 -31 -50 -147 0 -105 1 -113 24 -134 22 -21
32 -23 107 -19 54 2 84 8 87 16 2 6 9 12 16 12 7 0 18 16 25 36 l13 36 22 -38
c13 -22 28 -38 34 -37 7 2 12 -1 12 -5 0 -11 58 -17 113 -11 22 3 80 67 72 80
-4 5 -2 9 3 9 15 0 9 165 -7 183 -32 40 -65 13 -62 -52 1 -29 -4 -61 -10 -73
-8 -16 -8 -19 1 -13 9 6 9 3 1 -12 -6 -11 -8 -23 -5 -26 3 -2 -8 -9 -25 -15
-46 -16 -61 8 -61 97 0 84 -11 111 -45 111 -34 0 -43 -24 -41 -102 1 -63 0
-66 -16 -51 -13 12 -15 20 -7 29 22 27 -13 107 -54 120 -26 8 -127 13 -147 6z
m160 -47 c24 -21 26 -67 5 -85 -14 -11 -13 -14 5 -27 24 -17 27 -65 4 -87 -12
-12 -37 -16 -105 -16 l-89 0 0 121 0 122 80 -5 c58 -3 85 -10 100 -23z m120
-65 c0 -105 15 -130 75 -130 59 0 75 28 75 132 0 73 3 88 16 88 13 0 15 -14
13 -87 -2 -49 -7 -98 -12 -110 -10 -23 -62 -53 -92 -53 -31 0 -82 31 -94 56
-12 27 -16 176 -4 187 18 18 23 0 23 -83z"/>
<path d="M1720 860 l0 -40 54 0 c72 0 86 6 86 40 0 34 -14 40 -86 40 l-54 0 0
-40z m105 3 c3 -9 -8 -13 -35 -13 -35 0 -49 8 -36 21 10 10 66 3 71 -8z"/>
<path d="M1720 755 l0 -45 64 0 c45 0 69 5 80 16 21 20 20 30 -4 54 -16 16
-33 20 -80 20 l-60 0 0 -45z m115 -5 c0 -8 -6 -15 -12 -14 -7 1 -26 2 -42 3
-16 0 -31 7 -34 14 -3 8 9 12 42 12 34 -1 46 -5 46 -15z"/>
<path d="M2232 935 c-18 -22 -20 -41 -20 -133 0 -108 11 -142 43 -142 16 0 47
35 38 43 -3 4 -2 7 4 7 7 0 11 37 12 95 2 84 -1 98 -20 125 -28 36 -32 37 -57
5z m41 -128 c2 -104 0 -117 -15 -117 -15 0 -17 13 -16 113 0 115 3 130 20 125
5 -2 10 -55 11 -121z"/>
<path d="M2339 943 c-10 -11 -15 -49 -16 -120 -1 -57 -5 -108 -8 -113 -3 -6
-1 -10 5 -10 6 0 9 -4 5 -9 -3 -5 4 -12 15 -16 11 -3 20 -11 20 -16 0 -17 141
-11 161 7 16 15 20 15 41 0 31 -22 128 -21 171 2 62 33 98 84 97 140 -1 38
-31 94 -57 108 -13 6 -20 14 -15 19 4 4 0 6 -9 2 -9 -3 -27 2 -40 10 -17 13
-20 13 -14 2 7 -11 6 -12 -6 -2 -19 15 -113 10 -134 -7 -11 -10 -15 -36 -15
-112 0 -99 0 -100 -22 -94 -13 3 -42 6 -65 6 l-43 0 0 88 c0 75 -3 92 -20 110
-25 26 -33 27 -51 5z m41 -123 l0 -110 70 0 c40 0 70 -4 70 -10 0 -6 -35 -10
-85 -10 l-85 0 0 120 c0 100 3 120 15 120 12 0 15 -19 15 -110z m332 98 c76
-23 109 -98 73 -168 -25 -49 -51 -60 -137 -60 l-78 0 0 120 0 120 51 0 c29 0
69 -5 91 -12z"/>
<path d="M2600 805 l0 -95 51 0 c83 0 118 28 119 97 0 34 -5 46 -31 67 -25 21
-41 26 -85 26 l-54 0 0 -95z m125 53 c5 4 5 1 1 -5 -4 -7 -2 -13 3 -13 12 0
14 -32 5 -67 -6 -23 -31 -34 -79 -37 l-30 -2 3 67 c4 75 15 86 63 63 15 -7 30
-10 34 -6z"/>
<path d="M2948 942 c-14 -15 -17 -40 -19 -137 -1 -112 0 -120 21 -137 22 -17
23 -17 45 4 16 15 22 31 20 55 -2 39 7 43 23 8 6 -14 16 -25 22 -25 6 0 9 -4
6 -9 -3 -5 0 -11 8 -14 16 -6 76 43 76 62 0 7 5 9 10 6 6 -3 8 -19 5 -34 -3
-20 2 -34 19 -50 22 -21 25 -21 40 -5 16 15 18 15 38 -2 20 -19 21 -18 53 19
28 33 38 37 77 37 43 0 76 -18 61 -33 -3 -4 -1 -7 5 -7 6 0 18 -8 28 -17 13
-13 19 -14 22 -5 2 6 10 12 18 12 22 0 17 43 -11 84 -14 21 -21 35 -16 32 14
-9 -60 131 -81 154 -33 35 -58 13 -115 -101 l-52 -104 -2 50 c-1 28 -1 69 0
93 1 41 -23 82 -48 82 -10 0 -61 -62 -61 -74 0 -4 -10 -21 -22 -39 -13 -18
-24 -34 -26 -37 -5 -7 -41 43 -36 51 2 4 -3 9 -11 13 -8 3 -15 12 -15 21 0 15
-46 66 -59 64 -3 0 -14 -8 -23 -17z m81 -92 c28 -45 51 -85 51 -90 0 -6 5 -10
10 -10 6 0 10 4 10 9 0 16 96 165 108 169 9 3 12 -29 12 -117 0 -104 -2 -121
-16 -121 -14 0 -15 13 -12 90 1 50 2 90 1 90 -1 0 -23 -36 -50 -80 -26 -44
-50 -80 -53 -80 -3 0 -27 36 -54 80 -27 44 -49 80 -50 80 -1 0 0 -40 2 -90 4
-78 2 -90 -12 -90 -14 0 -16 16 -16 120 0 66 4 120 9 120 5 0 32 -36 60 -80z
m434 -45 c47 -95 54 -115 39 -115 -10 0 -22 12 -29 30 -11 29 -13 30 -83 30
-70 0 -71 0 -81 -30 -7 -19 -18 -30 -29 -30 -16 0 -10 18 40 120 40 79 64 118
73 115 7 -3 38 -57 70 -120z"/>
<path d="M3364 840 l-31 -65 29 -3 c15 -2 41 -2 57 0 l29 3 -20 40 c-11 22
-23 51 -27 65 -7 22 -10 18 -37 -40z"/>
<path d="M3497 933 c-17 -21 -13 -58 4 -47 5 3 9 0 9 -5 0 -6 14 -11 31 -11
l30 0 -1 -67 c-2 -105 -1 -112 20 -133 l20 -20 23 20 c23 22 24 25 26 135 l1
70 29 0 29 0 4 -91 c3 -69 8 -95 21 -109 22 -22 43 -14 65 25 22 39 38 38 78
-5 34 -38 54 -43 77 -21 13 13 17 13 33 1 25 -19 51 -19 62 2 9 15 12 14 32
-5 l23 -21 32 25 c19 14 36 32 39 40 3 7 10 14 16 14 16 0 60 -47 52 -56 -4
-4 -2 -4 4 -1 7 4 17 0 24 -8 11 -14 15 -14 31 1 25 23 24 39 -7 79 -15 20
-23 39 -18 46 4 8 3 9 -4 5 -7 -4 -12 -2 -12 4 0 6 -5 8 -12 4 -11 -7 5 15 53
74 5 6 7 12 3 12 -3 0 -1 7 6 15 10 13 10 19 -5 35 -10 11 -21 20 -25 20 -11
0 -56 -45 -69 -68 -11 -21 -13 -20 -53 24 -40 43 -42 44 -65 29 -22 -15 -27
-15 -50 0 -24 16 -26 16 -53 -15 -34 -38 -36 -38 -61 -9 -23 26 -53 34 -124
32 -66 -3 -75 -5 -69 -15 9 -13 -14 -9 -29 6 -10 10 -39 14 -109 13 -85 -2
-97 -4 -111 -24z m213 -18 c0 -11 -11 -15 -40 -15 l-40 0 0 -105 c0 -87 -3
-105 -15 -105 -12 0 -15 18 -15 105 l0 105 -45 0 c-33 0 -45 4 -45 15 0 12 18
15 100 15 82 0 100 -3 100 -15z m185 1 c18 -8 41 -26 50 -40 15 -22 16 -31 5
-56 -7 -17 -21 -35 -31 -41 -21 -11 -16 -27 21 -66 l21 -23 -21 0 c-13 0 -28
13 -41 35 -20 33 -24 35 -71 35 l-50 0 4 -35 c3 -29 1 -35 -14 -35 -16 0 -18
11 -18 113 0 63 3 117 7 120 12 12 103 7 138 -7z m148 -109 c2 -98 0 -117 -13
-117 -13 0 -15 19 -13 117 1 65 2 120 2 121 1 2 6 2 12 0 7 -2 11 -47 12 -121z
m122 72 c21 -28 41 -47 45 -42 3 4 21 27 39 51 18 23 39 42 47 42 15 0 19 -16
6 -22 -4 -1 -25 -25 -45 -52 l-37 -48 45 -57 c26 -33 40 -58 33 -60 -11 -4
-34 19 -73 72 l-20 28 -37 -49 c-20 -27 -46 -52 -57 -55 -17 -4 -11 8 29 58
40 52 47 67 37 77 -22 23 -77 96 -77 102 0 3 6 6 14 6 8 0 31 -23 51 -51z
m-21 -72 c3 -15 1 -25 -3 -23 -5 3 -13 -6 -19 -19 -7 -14 -16 -25 -22 -25 -5
0 -10 -7 -10 -16 0 -8 -3 -13 -7 -11 -5 3 -7 46 -5 96 l3 90 29 -33 c16 -18
31 -45 34 -59z m-162 -69 c2 -21 0 -38 -4 -38 -4 0 -8 5 -8 12 0 6 -10 23 -22
37 -13 14 -19 23 -14 19 5 -5 16 2 25 15 17 24 17 24 23 -45z"/>
<path d="M3780 846 c0 -61 10 -68 80 -59 63 9 88 55 50 93 -15 15 -33 20 -75
20 l-55 0 0 -54z m110 -2 c0 -8 0 -17 0 -21 0 -11 -69 -10 -73 2 -3 5 -1 20 4
32 7 20 11 21 39 12 16 -6 30 -17 30 -25z"/>
<path d="M1941 608 c-105 -5 -149 -11 -159 -22 -25 -25 4 -42 73 -43 214 -4
256 -6 261 -14 3 -5 10 -6 16 -3 6 4 49 6 97 5 74 -2 90 1 104 17 22 24 13 50
-21 63 -27 10 -141 10 -371 -3z m379 -37 c0 -12 -25 -13 -152 -8 -83 4 -203 8
-267 9 l-116 2 120 6 c66 3 186 5 267 5 120 0 148 -3 148 -14z"/>
<path d="M3684 611 c-30 -13 -38 -40 -17 -63 15 -17 30 -18 129 -16 62 1 111
4 109 7 -2 4 65 6 148 5 117 -1 155 2 165 13 25 24 -3 40 -84 47 -143 12 -429
16 -450 7z m410 -30 c66 -1 117 -3 115 -5 -2 -2 -122 -6 -266 -10 -213 -6
-263 -5 -263 6 0 10 32 13 148 11 81 0 201 -2 266 -2z"/>
</g>
</svg>
